HIERARCHY
ROOT Hips
{
	OFFSET 0.000000 0.000000 0.000000 
	CHANNELS 6 Xposition Yposition Zposition Zrotation Yrotation Xrotation
	JOINT LeftUpLeg
	{
		OFFSET 1.363060 -1.794630 0.839290 
		CHANNELS 3 Zrotation Yrotation Xrotation
		JOINT LeftLeg
		{
			OFFSET 2.448110 -6.726130 0.000000 
			CHANNELS 3 Zrotation Yrotation Xrotation
			JOINT LeftFoot
			{
				OFFSET 2.562200 -7.039590 0.000000 
				CHANNELS 3 Zrotation Yrotation Xrotation
				JOINT LeftToeBase
				{
					OFFSET 0.157640 -0.433110 2.322550 
					CHANNELS 3 Zrotation Yrotation Xrotation
					End Site
					{
						OFFSET 0.000000 0.000000 0.000000 
					}
				}
			}
		}
	}
	JOINT RightUpLeg
	{
		OFFSET -1.305520 -1.794630 0.839290 
		CHANNELS 3 Zrotation Yrotation Xrotation
		JOINT RightLeg
		{
			OFFSET -2.542530 -6.985550 0.000000 
			CHANNELS 3 Zrotation Yrotation Xrotation
			JOINT RightFoot
			{
				OFFSET -2.568260 -7.056230 0.000000 
				CHANNELS 3 Zrotation Yrotation Xrotation
				JOINT RightToeBase
				{
					OFFSET -0.164730 -0.452590 2.363150 
					CHANNELS 3 Zrotation Yrotation Xrotation
					End Site
					{
						OFFSET 0.000000 0.000000 0.000000 
					}
				}
			}
		}
	}
	JOINT Spine
	{
		OFFSET 0.028270 2.035590 -0.193380 
		CHANNELS 3 Zrotation Yrotation Xrotation
		JOINT Spine1
		{
			OFFSET 0.056720 2.048850 -0.042750 
			CHANNELS 3 Zrotation Yrotation Xrotation
			JOINT Neck1
			{
				OFFSET -0.054170 1.746240 0.172020 
				CHANNELS 3 Zrotation Yrotation Xrotation
				JOINT Head
				{
					OFFSET 0.104070 1.761360 -0.123970 
					CHANNELS 3 Zrotation Yrotation Xrotation
					End Site
					{
						OFFSET 0.000000 0.000000 0.000000 
					}
				}
			}
			JOINT LeftArm
			{
				OFFSET 3.362410 1.200890 -0.311210 
				CHANNELS 3 Zrotation Yrotation Xrotation
				JOINT LeftForeArm
				{
					OFFSET 4.983000 -0.000000 -0.000000 
					CHANNELS 3 Zrotation Yrotation Xrotation
					JOINT LeftHand
					{
						OFFSET 3.483560 -0.000000 -0.000000 
						CHANNELS 3 Zrotation Yrotation Xrotation
						JOINT LeftHandIndex1
						{
							OFFSET 0.715260 -0.000000 -0.000000 
							CHANNELS 3 Zrotation Yrotation Xrotation
							End Site
							{
								OFFSET 0.000000 0.000000 0.000000 
							}
						}
					}
				}
			}
			JOINT RightArm
			{
				OFFSET -3.136600 1.374050 -0.404650 
				CHANNELS 3 Zrotation Yrotation Xrotation
				JOINT RightForeArm
				{
					OFFSET -5.241900 -0.000000 -0.000000 
					CHANNELS 3 Zrotation Yrotation Xrotation
					JOINT RightHand
					{
						OFFSET -3.444170 -0.000000 -0.000000 
						CHANNELS 3 Zrotation Yrotation Xrotation
						JOINT RightHandIndex1
						{
							OFFSET -0.622530 -0.000000 -0.000000 
							CHANNELS 3 Zrotation Yrotation Xrotation
							End Site
							{
								OFFSET 0.000000 0.000000 0.000000 
							}
						}
					}
				}
			}
		}
	}
}
MOTION
Frames: 7
Frame Time: 0.041667
9.852619 17.574269 18.922705 -178.624816 3.653877 -156.142243 -17.108500 -24.862824 -37.045802 4.732701 13.244476 38.106441 2.921983 3.917020 -32.990632 11.358500 -18.106100 -63.940300 24.347117 23.178987 -22.122189 -6.679444 -14.766763 48.065291 -2.783473 6.609407 -35.421531 -5.522700 13.949300 -43.034900 -1.280023 5.692353 -4.349271 1.490845 2.724279 -0.823876 6.423437 -4.339570 12.661866 1.857900 -2.009600 5.189900 -68.834065 1.839211 -14.005073 2.664450 -6.511073 -0.856345 0.757331 0.085162 54.294068 -7.125000 0.000000 0.000000 69.895508 4.821657 27.924211 -31.099529 45.992521 -12.126609 0.849768 -2.448785 0.491565 7.125000 0.000000 0.000000 
9.806250 17.631265 18.723581 -178.983417 2.898097 -155.908520 -18.187523 -24.815004 -35.700138 4.500658 12.871431 36.844637 2.890193 3.563072 -32.821761 11.453200 -18.149800 -64.244900 22.674706 24.415239 -25.013017 -6.699084 -15.132065 48.522869 -2.664693 5.592223 -34.739626 -5.445600 13.868700 -42.714100 -1.135793 5.041701 -4.293584 1.581088 2.413610 -0.770295 6.612620 -4.235881 12.639545 1.931200 -1.953700 5.175000 -68.027919 0.464928 -15.363430 3.686933 -7.861583 -1.001055 0.757359 0.045957 56.436288 -7.125000 0.000000 0.000000 69.412521 3.388079 27.071128 -29.727394 44.994230 -11.494328 0.773962 -2.443653 1.325675 7.125000 0.000000 0.000000 
9.773324 17.674404 18.524457 -179.385774 2.554766 -155.736019 -19.426428 -24.405184 -34.240636 4.288340 12.520197 35.650598 2.918717 3.635851 -32.943273 11.697400 -18.259800 -65.026300 20.677160 26.004177 -27.982600 -6.710942 -15.483684 48.949078 -2.607739 4.353700 -34.237774 -5.485500 13.910500 -42.880300 -0.968642 4.512271 -4.222462 1.915603 2.161498 -0.706002 6.724844 -4.118151 12.869441 1.993800 -1.894200 5.261400 -67.247353 -0.910148 -2.848779 4.825602 -10.015594 -1.193861 0.742424 0.251878 44.672050 -7.125000 0.000000 0.000000 68.912954 1.815508 26.079925 -28.402373 43.957147 -10.860550 0.712661 -2.433612 2.069879 7.125000 0.000000 0.000000 
9.749254 17.708477 18.327522 -179.722069 2.273976 -155.645153 -20.551431 -23.849663 -32.812994 4.106329 12.207379 34.600177 2.997522 3.867265 -33.352978 12.114700 -18.438700 -66.352100 18.635359 27.571689 -30.887179 -6.675716 -15.751156 49.143241 -2.652313 2.938101 -34.178489 -5.623700 14.053500 -43.452000 -0.795626 4.076192 -4.164021 2.248813 1.965505 -0.685503 6.938875 -4.161622 12.930168 2.093100 -1.921000 5.245600 -66.368013 -2.544057 6.070093 6.183471 -12.182835 -1.439533 0.700536 0.404274 36.169062 -7.125000 0.000000 0.000000 68.464713 -0.098368 24.988723 -27.339952 43.088387 -10.373455 0.688053 -2.421512 2.210106 7.125000 0.000000 0.000000 
9.732790 17.732859 18.131107 179.838981 2.024897 -155.782334 -21.837896 -23.261918 -31.129644 3.940621 11.876686 33.560217 3.013343 3.958404 -33.366280 12.311900 -18.519400 -66.974100 16.524873 28.844043 -33.486254 -6.578696 -15.882791 48.990980 -2.741643 1.529567 -34.367119 -5.643400 14.073600 -43.533100 -0.640563 3.632327 -4.086729 2.600103 1.766987 -0.742221 6.907416 -4.002204 13.280302 2.058300 -1.831000 5.384000 -65.496077 -4.573558 11.738251 7.362738 -13.914628 -1.677836 0.660385 0.502465 30.497524 -7.125000 0.000000 0.000000 68.194224 -2.188768 23.866042 -26.420702 42.332302 -9.982659 0.649109 -2.413894 2.328840 7.125000 0.000000 0.000000 
9.726226 17.743800 17.931566 179.305427 1.852752 -156.016722 -23.207005 -22.595809 -29.363471 3.799138 11.560432 32.619772 3.041944 3.852369 -33.499298 12.428800 -18.566100 -67.341800 14.320354 29.813134 -36.023263 -6.449876 -15.936254 48.646748 -2.774674 -0.007962 -34.211630 -5.505100 13.931000 -42.961500 -0.494163 3.203668 -4.029205 3.001197 1.589071 -0.783624 7.795913 -4.017007 12.619894 2.432600 -1.857000 5.007900 -64.735630 -6.873215 15.366593 8.376219 -15.324606 -1.904447 0.629332 0.571662 26.646642 -7.125000 0.000000 0.000000 68.118728 -4.381124 22.614718 -25.618123 41.639923 -9.639499 0.620999 -2.412016 2.780030 7.125000 0.000000 0.000000 
9.728310 17.746405 17.724940 178.759426 1.544488 -156.305446 -24.459096 -22.021532 -27.681549 3.708209 11.321997 31.965560 3.080337 3.481737 -33.760517 12.470300 -18.582500 -67.472000 12.238332 30.322368 -38.445526 -6.291653 -15.923216 48.134106 -2.728091 -1.647164 -33.550679 -5.173200 13.576300 -41.565900 -0.349727 2.630271 -4.003562 3.350399 1.149953 -0.857913 7.898536 -3.873235 12.620492 2.447000 -1.793600 4.917400 -64.012990 -9.372736 17.718618 9.184069 -16.402977 -2.103056 0.609553 0.617676 24.261541 -7.125000 0.000000 0.000000 68.279863 -6.731656 21.259303 -24.968229 41.073098 -9.374450 0.579501 -2.413772 3.500021 7.125000 0.000000 0.000000 
